<?xml version="1.0" encoding="utf-8" ?>
<svg baseProfile="tiny" height="100%" version="1.2" width="100%" xmlns="http://www.w3.org/2000/svg" xmlns:ev="http://www.w3.org/2001/xml-events" xmlns:xlink="http://www.w3.org/1999/xlink"><defs /><polygon fill="black" points="107,251" /><polygon fill="black" points="17,245" /><polygon fill="black" points="245,240 245,243 246,244 247,244 249,246 247,248 246,247 245,247 245,248 250,248 251,247 251,245 250,244 249,244 248,243 247,243 246,242 247,241 250,241 251,240" /><polygon fill="black" points="206,240 206,243 207,244 208,244 210,246 208,248 207,247 206,247 206,248 211,248 211,246 212,245 211,244 210,244 209,243 208,243 207,242 208,241 211,241 211,240" /><polygon fill="black" points="177,240 177,249 178,248 178,242 179,241 181,241 183,243 183,246 182,247 182,248 183,249 184,248 184,242 183,241 183,240" /><polygon fill="black" points="147,240 147,241 146,242 146,247 147,248 152,248 153,247 153,246 154,245 154,243 153,242 153,241 152,240" /><polygon fill="black" points="138,240 137,241 137,242 136,243 136,246 138,248 139,248 140,249 141,248 142,248 142,247 139,247 138,246 138,245 137,244 138,243 138,242 139,241 142,241 142,240" /><polygon fill="black" points="99,240 98,241 98,242 97,243 97,246 98,247 98,248 104,248 104,247 105,246 105,242 104,241 104,240" /><polygon fill="black" points="37,240 37,248 39,248 38,247 38,243 40,241 41,241 42,240" /><polygon fill="black" points="26,240 26,241 28,241 29,240 31,242 31,243 30,244 26,244 25,245 25,247 26,248 28,248 29,249 30,248 32,248 32,241 31,240" /><polygon fill="black" points="192,239 191,240 189,240 188,241 188,243 189,244 189,247 188,248 188,251 189,252 194,252 196,250 195,249 195,248 194,248 193,247 192,247 191,246 192,245 194,245 194,243 195,242 195,241 196,240 193,240" /><polygon fill="black" points="122,239 122,249 123,248 123,243 125,241 126,241 127,240 123,240" /><polygon fill="black" points="110,239 109,240 109,246 110,247 110,248 112,248 113,249 114,248 116,248 116,240 115,240 115,246 114,247 112,247 110,245 111,244 111,243 110,242 111,241 111,240" /><polygon fill="black" points="87,239 86,240 86,241 87,242 87,243 88,244 88,246 89,247 89,249 86,252 89,252 90,251 90,250 91,249 91,247 92,246 92,244 93,243 93,242 94,241 94,240 93,240 92,241 92,242 91,243 91,245 90,246 89,245 89,243 88,242 88,240" /><polygon fill="black" points="72,239 71,240 69,240 69,248 70,248 70,243 72,241 74,241 75,242 75,247 74,248 75,249 76,248 76,241 75,240 74,240 73,239" /><polygon fill="black" points="60,239 58,241 58,242 57,243 57,246 59,248 64,248 64,247 60,247 59,246 60,245 64,245 65,244 64,243 64,241 63,240 62,240 61,239" /><polygon fill="black" points="50,239 49,240 45,240 46,241 46,253 47,252 47,249 48,248 49,249 50,249 51,248 52,248 52,247 53,246 53,242 52,241 52,240 51,240" /><polygon fill="black" points="245,238" /><polygon fill="black" points="76,238" /><polygon fill="black" points="216,237 216,249 217,248 217,246 218,245 221,248 223,248 220,245 220,244 219,243 221,241 222,241 222,240 220,240 218,242 217,241 217,237" /><polygon fill="black" points="164,237 164,239 163,240 159,240 159,241 158,242 158,247 159,248 164,248 165,249 165,237" /><polygon fill="black" points="14,237 14,249 15,248 15,243 17,241 18,241 20,243 20,246 19,247 20,248 20,249 21,248 21,242 20,241 20,240 19,240 18,239 17,239 16,240 15,239 15,238 16,237" /><polygon fill="black" points="3,237 3,238 2,239 2,240 3,241 3,242 4,242 6,244 5,245 6,244 7,244 8,245 6,247 2,247 2,248 8,248 9,247 9,244 7,242 6,242 4,240 4,239 5,238 9,238 9,237" /><polygon fill="black" points="240,236 239,237 239,248 240,249" /><polygon fill="black" points="234,236 233,237 233,249 234,249" /><polygon fill="black" points="227,236 227,249 228,248 228,240 227,239 228,238 228,237" /><polygon fill="black" points="171,236 170,237 170,238 171,239 170,240 170,245 171,246 170,247 170,248 171,249 172,248 172,240 171,239 172,238 172,237" /><polygon fill="black" points="209,190 208,191 207,191 205,193 205,194 204,195 204,199 205,200 205,201 207,203 208,203 209,204 210,204 211,205 214,205 215,206 217,206 218,207 218,209 216,211 212,211 209,208 209,207 203,207 203,210 205,212 205,213 207,215 209,215 210,216 218,216 219,215 220,215 221,214 222,214 224,212 224,209 225,208 225,207 224,206 224,204 222,202 221,202 220,201 218,201 217,200 212,200 210,198 210,196 212,194 215,194 218,197 222,197 223,198 224,197 224,195 222,193 222,192 221,191 220,191 219,190" /><polygon fill="black" points="186,190 185,191 185,215 186,216 187,215 189,215 190,216 191,215 192,215 191,214 191,202 192,201 192,200 193,199 193,198 195,196 196,196 197,195 200,195 201,194 201,191 200,190 196,190 195,191 194,191 192,193 191,192 191,190" /><polygon fill="black" points="127,190 127,193 128,194 128,195 129,196 129,197 130,198 130,200 131,201 131,202 132,203 131,204 133,206 133,207 134,208 134,210 135,211 135,213 136,214 136,215 140,215 141,216 142,215 143,215 143,213 144,212 144,211 145,210 145,208 146,207 146,206 147,205 147,203 148,202 148,200 149,199 149,198 150,197 150,196 151,195 151,193 152,192 152,190 146,190 145,191 145,193 144,194 144,195 143,196 143,198 142,199 142,201 141,202 141,204 140,205 139,205 138,204 138,202 137,201 137,200 136,199 136,197 135,196 135,194 134,193 134,192 133,191 133,190" /><polygon fill="black" points="239,189 238,190 235,190 232,193 231,193 230,194 230,196 229,197 229,199 228,200 228,206 229,207 229,209 230,210 230,211 233,214 234,214 235,215 236,215 237,216 245,216 246,215 247,215 248,214 249,214 251,212 251,211 253,209 253,207 247,207 244,210 243,210 242,211 240,211 239,210 238,210 235,207 235,206 234,205 235,204 254,204 254,199 253,198 253,197 252,196 252,195 251,194 251,193 250,192 249,192 247,190 244,190 243,189" /><polygon fill="black" points="166,189 165,190 162,190 161,191 160,191 156,195 156,196 155,197 155,201 154,202 155,203 155,208 156,209 156,210 161,215 163,215 164,216 172,216 173,215 174,215 179,210 179,209 180,208 179,207 174,207 172,209 171,209 169,211 167,211 166,210 165,210 161,206 161,205 162,204 180,204 180,198 179,197 179,195 175,191 174,191 173,190 171,190 170,189" /><polygon fill="black" points="111,189 110,190 106,190 101,195 101,196 100,197 100,198 99,199 99,207 100,208 100,209 102,211 102,212 104,214 105,214 106,215 107,215 108,216 116,216 117,215 118,215 119,214 120,214 123,211 123,210 124,209 124,207 118,207 115,210 114,210 113,211 111,211 110,210 109,210 106,207 106,206 105,205 106,204 125,204 125,200 124,199 124,197 123,196 123,194 120,191 119,191 118,190 115,190 114,189" /><polygon fill="black" points="47,189 46,190 44,190 43,191 42,191 39,194 39,195 38,196 38,197 37,198 37,207 38,208 38,209 39,210 39,211 42,214 43,214 44,215 46,215 47,216 54,216 55,215 56,215 57,214 58,214 62,210 62,209 63,208 63,198 62,197 62,195 58,191 57,191 56,190 55,190 54,189" /><polygon fill="black" points="88,181 88,191 87,192 85,190 83,190 82,189 76,189 75,190 73,190 69,194 69,195 68,196 68,197 67,198 67,206 68,207 68,209 70,211 70,212 73,215 75,215 76,216 82,216 83,215 84,215 85,214 86,214 87,213 88,214 88,215 92,215 93,216 94,215 94,181" /><polygon fill="black" points="28,181" /><polygon fill="black" points="13,181 12,182 10,182 9,183 8,183 6,185 5,185 3,187 3,188 1,190 1,191 0,192 0,205 1,206 1,207 3,209 3,210 6,213 7,213 8,214 9,214 10,215 12,215 13,216 22,216 23,215 24,215 25,214 26,214 27,213 28,213 28,212 29,211 30,211 31,210 31,209 32,208 32,207 33,206 33,203 29,203 28,202 27,203 27,204 25,206 25,207 23,209 22,209 21,210 18,210 17,211 16,211 15,210 13,210 12,209 11,209 8,206 8,205 6,203 6,194 7,193 7,192 10,189 11,189 13,187 15,187 16,186 18,186 19,187 21,187 22,188 23,188 25,190 25,191 26,192 26,193 27,194 33,194 33,191 32,190 32,189 30,187 30,186 28,184 27,184 26,183 25,183 24,182 23,182 22,181" /><polygon fill="black" points="53,98" /><polygon fill="black" points="84,69" /><polygon fill="black" points="140,2 139,3 138,3 138,6 147,15 147,16 146,17 145,17 145,18 143,20 142,20 141,21 141,22 140,23 139,23 139,24 138,25 138,28 141,28 148,21 149,21 149,20 152,17 152,13 151,13 150,12 150,11 149,10 148,10 146,8 146,7 145,7 144,6 144,5 141,2" /><polygon fill="black" points="113,2 112,3 111,3 101,13 101,17 113,29 115,27 115,25 110,20 110,19 109,18 108,18 106,16 106,15 115,6 115,3 114,3" /><polygon fill="black" points="172,0 171,1 170,1 171,1 172,2 173,2 174,3 175,3 177,5 178,5 187,14 187,15 190,18 190,19 191,20 191,22 192,23 192,24 193,25 193,27 194,28 194,32 195,33 195,43 194,44 194,45 193,46 193,48 192,49 192,51 191,52 191,53 190,54 190,55 189,56 189,57 180,66 179,66 177,68 176,68 175,69 174,69 173,70 172,70 171,71 170,71 169,72 168,72 166,70 165,70 160,65 159,65 157,63 156,63 155,62 154,62 153,61 151,61 150,60 149,60 148,59 148,58 147,59 148,60 148,136 194,136 196,134 196,120 194,118 190,118 189,117 189,116 188,115 188,109 187,108 187,104 186,103 187,102 188,102 189,101 190,101 191,100 192,100 193,99 194,99 195,98 196,98 197,97 198,97 199,96 200,96 202,94 203,94 204,93 205,93 214,84 214,83 217,80 217,79 219,77 219,76 220,75 220,74 221,73 221,72 222,71 222,70 223,69 223,67 224,66 224,64 225,63 225,58 226,57 226,44 225,43 225,39 224,38 224,35 223,34 223,32 222,31 222,29 220,27 220,26 219,25 219,24 218,23 218,22 216,20 216,19 211,14 211,13 210,13 206,9 205,9 202,6 201,6 200,5 199,5 198,4 196,4 195,3 194,3 193,2 191,2 190,1 185,1 184,0" /><polygon fill="black" points="127,0 127,3 126,4 126,7 125,8 125,13 124,14 124,17 123,18 123,22 122,23 122,27 121,28 121,31 125,31 125,29 126,28 126,25 127,24 127,19 128,18 128,15 129,14 129,10 130,9 130,4 131,3 131,0" /><polygon fill="black" points="69,0 68,1 63,1 62,2 60,2 59,3 57,3 56,4 55,4 54,5 53,5 52,6 51,6 48,9 47,9 44,12 43,12 42,13 42,14 37,19 37,20 35,22 35,23 34,24 34,25 33,26 33,27 31,29 31,31 30,32 30,34 29,35 29,37 28,38 28,43 27,44 27,57 28,58 28,62 29,63 29,66 30,67 30,69 31,70 31,71 32,72 32,73 33,74 33,75 34,76 34,77 35,78 35,79 36,79 37,80 37,81 40,84 40,85 48,93 49,93 51,95 52,95 53,96 54,96 55,97 56,97 58,99 60,99 62,101 64,101 65,102 66,102 67,103 66,104 66,106 65,107 65,115 64,116 64,117 63,118 59,118 57,120 57,121 56,122 56,123 57,124 57,131 56,132 57,133 57,134 59,136 114,136 115,137 115,160 116,160 118,162 119,162 123,166 124,166 126,168 127,168 128,167 129,167 133,163 134,163 137,160 138,160 138,159 139,158 139,157 138,156 138,135 139,134 139,58 138,57 138,48 136,46 117,46 115,48 115,55 114,56 112,56 111,57 109,57 108,58 106,58 104,60 102,60 101,61 100,61 99,62 98,62 96,64 95,64 94,65 93,65 89,69 88,69 85,72 84,72 83,71 82,71 81,70 80,70 79,69 77,69 74,66 73,66 66,59 66,58 63,55 63,54 62,53 62,51 60,49 60,47 59,46 59,43 58,42 58,32 59,31 59,27 60,26 60,24 61,23 61,22 62,21 62,20 63,19 63,18 65,16 65,15 67,13 67,12 69,10 70,10 70,9 71,8 72,8 75,5 76,5 78,3 79,3 80,2 81,2 82,1 83,1 82,0" /></svg>